<?xml version="1.0" encoding="UTF-8"?>
<svg id="Layer_2" data-name="Layer 2" xmlns="http://www.w3.org/2000/svg" viewBox="0 0 1944.22 119.91">
  <defs>
    <style>
      .cls-1 {
        fill: #ff9e97;
        stroke-width: 0px;
      }
    </style>
  </defs>
  <g id="Layer_4" data-name="Layer 4">
    <path class="cls-1" d="m0,62.37c42.12,0,86.33,11.11,124.67,22.44,69.62,20.58,138.46,6.61,239.11-32.51C424.71,28.62,485.79-3.41,551.05.29c91.44,5.19,166.45,79.19,257.18,91.67,131.55,18.1,257.96-96.57,387.54-67.57,67.82,15.18,123.91,68.2,192.92,76.41,62.31,7.41,121.95-22.98,179.91-47,15.22-6.31,31.03-12.31,47.51-12.45,32.28-.26,59.87,21.47,89,35.39,54.58,26.08,123.54,25.56,169.11,11.62,18.89-5.78,44.33-25.99,70-25.99v57.54H0v-57.54Z"/>
  </g>
</svg>