<?xml version="1.0" encoding="UTF-8"?>
<svg id="Layer_2" data-name="Layer 2" xmlns="http://www.w3.org/2000/svg" viewBox="0 0 211.49 65.68">
  <defs>
    <style>
      .cls-1 {
        fill: #ff9e97;
        stroke-width: 0px;
      }
    </style>
  </defs>
  <g id="Layer_1-2" data-name="Layer 1">
    <path class="cls-1" d="m8.3,14.26C18.2,4.87,32.85.75,46.2,3.63c5.86,1.26,12.48,3.19,18.47,3.5,21.54,1.1,35.58-9.12,57.5-6.78,5.7.61,14.14,3.67,19.83,4.33,13.86,1.61,27.79-2.24,42.33-1.09,8.17.65,16.2,4.35,21.4,10.68s7.25,15.33,4.58,23.07c-1.38,3.98-3.87,7.47-6.58,10.68-3.57,4.23-7.7,8.2-12.82,10.31-9.75,4.01-19.96,1.98-30.47,1.24-17.78-1.26-35.35-3.06-52.1,1.32-10.68,2.79-21.8,6.56-32.5,3.85-7.84-1.99-15.16-6.13-22.96-8.28-8.89-2.46-17.68-1.77-26.91-1.8-9.23-.03-19.63-2.83-23.89-11.02-4.75-9.13-.89-21.92,6.21-29.38"/>
  </g>
</svg>