<?xml version="1.0" encoding="UTF-8"?>
<svg id="Layer_2" data-name="Layer 2" xmlns="http://www.w3.org/2000/svg" viewBox="0 0 74.46 68.91">
  <defs>
    <style>
      .cls-1 {
        fill: #ff9e97;
        stroke-width: 0px;
      }
    </style>
  </defs>
  <g id="Layer_1-2" data-name="Layer 1">
    <path class="cls-1" d="m16.95,4.51c12.2-8.13,21.22-3.94,31,2.11,3.94,2.44,11.48-.2,17.11,4.56,5,4.22,3.65,11.03,5,15.11,1.21,3.65,5.28,9.44,4.22,18.11-1.11,9.11-8.44,9.78-11.44,13.22-3.87,4.45-3.42,9.11-12.56,10.89-8,1.56-10.51-1.88-15.66-3.16-15.29-3.79-25.62-1.79-31.45-11.46-7.7-12.76.67-17.9,3.5-28.5,1.94-7.26,3.28-16.22,10.28-20.89Z"/>
  </g>
</svg>