<?xml version="1.0" encoding="UTF-8"?>
<svg id="Layer_2" data-name="Layer 2" xmlns="http://www.w3.org/2000/svg" viewBox="0 0 555.96 236.48">
  <defs>
    <style>
      .cls-1 {
        fill: #ff9e97;
        stroke-width: 0px;
      }
    </style>
  </defs>
  <g id="Layer_3" data-name="Layer 3">
    <path class="cls-1" d="m256.95.49c-44.2-2.07-93.08,1.04-122.98,36-9.03,10.56-15,31.67-37.67,44.67s-47.27,12.27-70.53,31.13C-2.04,134.83-4.04,167.83,4.37,189.58c5.76,14.89,25.36,24.03,52.1,27.26,48.32,5.84,81.23,3.93,129.39-3.11,62-9.06,165.65,22.62,228.31,22.75,29.43.06,65.17-9.71,91.2-23.44,37.95-20.01,50.7-59.35,50.58-87.55-.16-38.8-18.15-61.51-42.3-76.69-24.15-15.18-60.04-19.32-84.88-9.66-14.48,5.63-38.98,14.53-58.66,12.42-44.79-4.81-54.17-48.31-113.17-51.07Z"/>
  </g>
</svg>