<?xml version="1.0" encoding="UTF-8"?>
<svg xmlns="http://www.w3.org/2000/svg" version="1.1" viewBox="0 0 576.33 494.65">
  <defs>
    <style>
      .cls-1 {
        fill: #00204c;
      }
    </style>
  </defs>
  <!-- Generator: Adobe Illustrator 28.7.1, SVG Export Plug-In . SVG Version: 1.2.0 Build 142)  -->
  <g>
    <g id="Layer_1">
      <g>
        <path class="cls-1" d="M287.88,84.14c-81.19,0-162.39.04-243.58-.03-23.51-.02-40.88-14.51-43.89-36.2C-2.98,23.38,14.96,1.54,39.74.09c1.86-.11,3.74-.08,5.61-.09,161.85,0,323.71-.02,485.56.01,23.23,0,40.51,13.27,44.4,33.82,4.92,25.97-14.01,49.7-40.64,50.19-24.03.43-48.07.12-72.11.12-58.22,0-116.45,0-174.67,0Z"/>
        <path class="cls-1" d="M287.21,289.38c-80.93,0-161.85.04-242.78-.03-23.56-.02-40.97-14.44-44-36.08-3.44-24.55,14.43-46.43,39.18-47.94,1.86-.11,3.74-.09,5.61-.09,161.85,0,323.71-.02,485.56.01,23.29,0,40.54,13.16,44.51,33.69,5.02,25.92-13.92,49.74-40.5,50.32-20.02.43-40.06.12-60.09.12-62.5,0-125,0-187.49,0Z"/>
        <path class="cls-1" d="M411.16,494.62c-40.61,0-81.22.11-121.83-.05-20.34-.08-36.86-12.62-41.76-31.12-7.15-26.99,12.65-52.64,41.31-52.88,34.2-.29,68.4-.08,102.6-.08,47.29,0,94.58-.13,141.87.09,17.53.08,30.99,7.97,38.58,23.99,7.41,15.65,5.38,30.8-5.26,44.4-8.66,11.07-20.61,15.66-34.47,15.66-40.34,0-80.69,0-121.03,0Z"/>
      </g>
    </g>
  </g>
</svg>