<?xml version="1.0" encoding="utf-8"?>
<!-- Generator: Adobe Illustrator 28.0.0, SVG Export Plug-In . SVG Version: 6.00 Build 0)  -->
<svg version="1.1" id="Layer_2_00000137838846964253358540000017224004389083585446_"
	 xmlns="http://www.w3.org/2000/svg" xmlns:xlink="http://www.w3.org/1999/xlink" x="0px" y="0px" viewBox="0 0 74.5 68.9"
	 style="enable-background:new 0 0 74.5 68.9;" xml:space="preserve">
<style type="text/css">
	.st0{fill:#FAFAF0;}
	.st1{fill:#FF9E97;}
</style>
<g id="Layer_1-2">
	<path class="st0" d="M17,4.5c12.2-8.1,21.2-3.9,31,2.1c3.9,2.4,11.5-0.2,17.1,4.6c5,4.2,3.7,11,5,15.1c1.2,3.6,5.3,9.4,4.2,18.1
		c-1.1,9.1-8.4,9.8-11.4,13.2c-3.9,4.5-3.4,9.1-12.6,10.9c-8,1.6-10.5-1.9-15.7-3.2C19.3,61.6,9,63.6,3.2,53.9
		C-4.5,41.1,3.8,36,6.7,25.4C8.6,18.1,9.9,9.2,17,4.5L17,4.5z"/>
	<path class="st1" d="M52.8,32L31.2,19.6C29.3,18.5,27,19.9,27,22v24.9c0,2.1,2.3,3.5,4.2,2.4l21.6-12.5
		C54.6,35.8,54.6,33.1,52.8,32z"/>
</g>
</svg>
