<?xml version="1.0" encoding="UTF-8"?>
<svg id="Layer_2" data-name="Layer 2" xmlns="http://www.w3.org/2000/svg" viewBox="0 0 1920.01 866.43">
  <defs>
    <style>
      .cls-1 {
        fill: #fafaf0;
        stroke-width: 0px;
      }
    </style>
  </defs>
  <g id="Layer_1-2" data-name="Layer 1">
    <path class="cls-1" d="m1920.01,412.01h0V44c-58,12.58-152.33,20.47-227.45,6.09-31.71-6.07-56.72-17.17-89-16.56-17.45.33-30.79,2.24-47.23,5.67-59.38,12.38-117.89,17.41-180.2,10-69.01-8.2-125.1-26.22-192.92-41.4-129.59-29-255.99,33.49-387.54,15.4-90.73-12.48-166.2-17.62-257.78-18-62.89-.26-122,20.93-186.67,30.5C233.01,53.2,127.01,65.2,0,45.78v154.96s0,0,0,0v404.6h0v217.1c58-12.58,152.33-20.47,227.45-6.09,31.71,6.07,56.72,17.17,89,16.56,17.45-.33,30.8-2.24,47.23-5.67,59.38-12.38,117.89-17.41,180.2-10,69.01,8.2,125.1,26.22,192.92,41.4,129.59,29,255.99-33.49,387.54-15.4,90.73,12.48,166.2,17.62,257.78,18,62.89.26,122-20.93,186.67-30.5,118.22-17.5,224.22-29.5,351.23-10.07v-154.96s0,0,0,0v-253.69Z"/>
  </g>
</svg>